<?xml version="1.0" encoding="UTF-8" standalone="no"?>
<!DOCTYPE svg PUBLIC "-//W3C//DTD SVG 1.1//EN"
 "http://www.w3.org/Graphics/SVG/1.1/DTD/svg11.dtd">
<!-- Generated by graphviz version 14.1.5 (0)
 -->
<!-- Title: LexerDFA Pages: 1 -->
<svg width="1039pt" height="2735pt"
 viewBox="0.00 0.00 1039.00 2735.00" xmlns="http://www.w3.org/2000/svg" xmlns:xlink="http://www.w3.org/1999/xlink">
<g id="graph0" class="graph" transform="scale(1 1) rotate(0) translate(4 2730.88)">
<title>LexerDFA</title>
<polygon fill="white" stroke="none" points="-4,4 -4,-2730.88 1034.84,-2730.88 1034.84,4 -4,4"/>
<!-- start -->
<g id="node1" class="node">
<title>start</title>
<ellipse fill="black" stroke="black" cx="1.8" cy="-1571.08" rx="1.8" ry="1.8"/>
</g>
<!-- q0 -->
<g id="node30" class="node">
<title>q0</title>
<ellipse fill="none" stroke="black" cx="78.96" cy="-1571.08" rx="38.36" ry="38.36"/>
<text xml:space="preserve" text-anchor="middle" x="78.96" y="-1572.78" font-family="Helvetica,Arial,sans-serif" font-size="14.00">q0</text>
<text xml:space="preserve" text-anchor="middle" x="78.96" y="-1557.78" font-family="Helvetica,Arial,sans-serif" font-size="14.00">(Start)</text>
</g>
<!-- start&#45;&gt;q0 -->
<g id="edge1" class="edge">
<title>start&#45;&gt;q0</title>
<path fill="none" stroke="black" d="M3.86,-1571.08C7.09,-1571.08 17.26,-1571.08 29.08,-1571.08"/>
<polygon fill="black" stroke="black" points="28.74,-1574.58 38.74,-1571.08 28.74,-1567.58 28.74,-1574.58"/>
</g>
<!-- ID -->
<g id="node2" class="node">
<title>ID</title>
<ellipse fill="lightblue" stroke="black" cx="551.82" cy="-2217.08" rx="19.17" ry="19.17"/>
<ellipse fill="none" stroke="black" cx="551.82" cy="-2217.08" rx="23.17" ry="23.17"/>
<text xml:space="preserve" text-anchor="middle" x="551.82" y="-2211.28" font-family="Helvetica,Arial,sans-serif" font-size="14.00">ID</text>
</g>
<!-- ID&#45;&gt;ID -->
<g id="edge7" class="edge">
<title>ID&#45;&gt;ID</title>
<path fill="none" stroke="black" d="M534.23,-2232.28C526.71,-2244.98 532.57,-2258.25 551.82,-2258.25 565.5,-2258.25 572.41,-2251.55 572.57,-2243.11"/>
<polygon fill="black" stroke="black" points="576,-2242.35 569.83,-2233.74 569.28,-2244.32 576,-2242.35"/>
<text xml:space="preserve" text-anchor="middle" x="551.82" y="-2259.25" font-family="Helvetica,Arial,sans-serif" font-size="10.00">letra | digito | _</text>
</g>
<!-- INTCON -->
<g id="node3" class="node">
<title>INTCON</title>
<ellipse fill="lightblue" stroke="black" cx="266.65" cy="-2641.08" rx="44.52" ry="44.52"/>
<ellipse fill="none" stroke="black" cx="266.65" cy="-2641.08" rx="48.52" ry="48.52"/>
<text xml:space="preserve" text-anchor="middle" x="266.65" y="-2635.28" font-family="Helvetica,Arial,sans-serif" font-size="14.00">INTCON</text>
</g>
<!-- INTCON&#45;&gt;INTCON -->
<g id="edge9" class="edge">
<title>INTCON&#45;&gt;INTCON</title>
<path fill="none" stroke="black" d="M247,-2685.85C247.95,-2698.18 254.5,-2707.6 266.65,-2707.6 274.82,-2707.6 280.45,-2703.35 283.56,-2696.82"/>
<polygon fill="black" stroke="black" points="286.91,-2697.87 285.94,-2687.32 280.12,-2696.17 286.91,-2697.87"/>
<text xml:space="preserve" text-anchor="middle" x="266.65" y="-2708.6" font-family="Helvetica,Arial,sans-serif" font-size="10.00">digito</text>
</g>
<!-- q_real_dot -->
<g id="node32" class="node">
<title>q_real_dot</title>
<ellipse fill="none" stroke="black" cx="551.82" cy="-2641.08" rx="32.33" ry="32.33"/>
<text xml:space="preserve" text-anchor="middle" x="551.82" y="-2635.28" font-family="Helvetica,Arial,sans-serif" font-size="14.00">q_dot</text>
</g>
<!-- INTCON&#45;&gt;q_real_dot -->
<g id="edge10" class="edge">
<title>INTCON&#45;&gt;q_real_dot</title>
<path fill="none" stroke="black" d="M315.37,-2641.08C369.18,-2641.08 455.91,-2641.08 507.74,-2641.08"/>
<polygon fill="black" stroke="black" points="507.67,-2644.58 517.67,-2641.08 507.67,-2637.58 507.67,-2644.58"/>
<text xml:space="preserve" text-anchor="middle" x="399.49" y="-2642.08" font-family="Helvetica,Arial,sans-serif" font-size="10.00">.</text>
</g>
<!-- REALCON -->
<g id="node4" class="node">
<title>REALCON</title>
<ellipse fill="lightblue" stroke="black" cx="758.37" cy="-2641.08" rx="53.3" ry="53.3"/>
<ellipse fill="none" stroke="black" cx="758.37" cy="-2641.08" rx="57.3" ry="57.3"/>
<text xml:space="preserve" text-anchor="middle" x="758.37" y="-2635.28" font-family="Helvetica,Arial,sans-serif" font-size="14.00">REALCON</text>
</g>
<!-- REALCON&#45;&gt;REALCON -->
<g id="edge12" class="edge">
<title>REALCON&#45;&gt;REALCON</title>
<path fill="none" stroke="black" d="M740.93,-2695.9C742.64,-2707.77 748.45,-2716.38 758.37,-2716.38 764.88,-2716.38 769.62,-2712.67 772.6,-2706.77"/>
<polygon fill="black" stroke="black" points="775.9,-2707.94 775.38,-2697.35 769.19,-2705.95 775.9,-2707.94"/>
<text xml:space="preserve" text-anchor="middle" x="758.37" y="-2717.38" font-family="Helvetica,Arial,sans-serif" font-size="10.00">digito</text>
</g>
<!-- CHARCON -->
<g id="node5" class="node">
<title>CHARCON</title>
<ellipse fill="lightblue" stroke="black" cx="971.59" cy="-576.08" rx="55.25" ry="55.25"/>
<ellipse fill="none" stroke="black" cx="971.59" cy="-576.08" rx="59.25" ry="59.25"/>
<text xml:space="preserve" text-anchor="middle" x="971.59" y="-570.28" font-family="Helvetica,Arial,sans-serif" font-size="14.00">CHARCON</text>
</g>
<!-- STRINGCON -->
<g id="node6" class="node">
<title>STRINGCON</title>
<ellipse fill="lightblue" stroke="black" cx="551.82" cy="-442.08" rx="64.02" ry="64.02"/>
<ellipse fill="none" stroke="black" cx="551.82" cy="-442.08" rx="68.02" ry="68.02"/>
<text xml:space="preserve" text-anchor="middle" x="551.82" y="-436.28" font-family="Helvetica,Arial,sans-serif" font-size="14.00">STRINGCON</text>
</g>
<!-- ASSIGN -->
<g id="node7" class="node">
<title>ASSIGN</title>
<ellipse fill="lightblue" stroke="black" cx="266.65" cy="-2523.08" rx="47.91" ry="47.91"/>
<ellipse fill="none" stroke="black" cx="266.65" cy="-2523.08" rx="51.91" ry="51.91"/>
<text xml:space="preserve" text-anchor="middle" x="266.65" y="-2524.78" font-family="Helvetica,Arial,sans-serif" font-size="14.00">ASSIGN</text>
<text xml:space="preserve" text-anchor="middle" x="266.65" y="-2509.78" font-family="Helvetica,Arial,sans-serif" font-size="14.00">=</text>
</g>
<!-- EQ -->
<g id="node8" class="node">
<title>EQ</title>
<ellipse fill="lightblue" stroke="black" cx="551.82" cy="-2523.08" rx="26.87" ry="26.87"/>
<ellipse fill="none" stroke="black" cx="551.82" cy="-2523.08" rx="30.87" ry="30.87"/>
<text xml:space="preserve" text-anchor="middle" x="551.82" y="-2524.78" font-family="Helvetica,Arial,sans-serif" font-size="14.00">EQ</text>
<text xml:space="preserve" text-anchor="middle" x="551.82" y="-2509.78" font-family="Helvetica,Arial,sans-serif" font-size="14.00">==</text>
</g>
<!-- ASSIGN&#45;&gt;EQ -->
<g id="edge22" class="edge">
<title>ASSIGN&#45;&gt;EQ</title>
<path fill="none" stroke="black" d="M318.93,-2523.08C373.52,-2523.08 458.86,-2523.08 509.37,-2523.08"/>
<polygon fill="black" stroke="black" points="509.29,-2526.58 519.29,-2523.08 509.29,-2519.58 509.29,-2526.58"/>
<text xml:space="preserve" text-anchor="middle" x="399.49" y="-2524.08" font-family="Helvetica,Arial,sans-serif" font-size="10.00">=</text>
</g>
<!-- NOT -->
<g id="node9" class="node">
<title>NOT</title>
<ellipse fill="lightblue" stroke="black" cx="266.65" cy="-2418.08" rx="31.47" ry="31.47"/>
<ellipse fill="none" stroke="black" cx="266.65" cy="-2418.08" rx="35.47" ry="35.47"/>
<text xml:space="preserve" text-anchor="middle" x="266.65" y="-2419.78" font-family="Helvetica,Arial,sans-serif" font-size="14.00">NOT</text>
<text xml:space="preserve" text-anchor="middle" x="266.65" y="-2404.78" font-family="Helvetica,Arial,sans-serif" font-size="14.00">!</text>
</g>
<!-- NEQ -->
<g id="node10" class="node">
<title>NEQ</title>
<ellipse fill="lightblue" stroke="black" cx="551.82" cy="-2418.08" rx="32.53" ry="32.53"/>
<ellipse fill="none" stroke="black" cx="551.82" cy="-2418.08" rx="36.53" ry="36.53"/>
<text xml:space="preserve" text-anchor="middle" x="551.82" y="-2419.78" font-family="Helvetica,Arial,sans-serif" font-size="14.00">NEQ</text>
<text xml:space="preserve" text-anchor="middle" x="551.82" y="-2404.78" font-family="Helvetica,Arial,sans-serif" font-size="14.00">!=</text>
</g>
<!-- NOT&#45;&gt;NEQ -->
<g id="edge24" class="edge">
<title>NOT&#45;&gt;NEQ</title>
<path fill="none" stroke="black" d="M302.37,-2418.08C352.94,-2418.08 446.99,-2418.08 503.74,-2418.08"/>
<polygon fill="black" stroke="black" points="503.4,-2421.58 513.4,-2418.08 503.4,-2414.58 503.4,-2421.58"/>
<text xml:space="preserve" text-anchor="middle" x="399.49" y="-2419.08" font-family="Helvetica,Arial,sans-serif" font-size="10.00">=</text>
</g>
<!-- LT -->
<g id="node11" class="node">
<title>LT</title>
<ellipse fill="lightblue" stroke="black" cx="266.65" cy="-2124.08" rx="26.87" ry="26.87"/>
<ellipse fill="none" stroke="black" cx="266.65" cy="-2124.08" rx="30.87" ry="30.87"/>
<text xml:space="preserve" text-anchor="middle" x="266.65" y="-2125.78" font-family="Helvetica,Arial,sans-serif" font-size="14.00">LT</text>
<text xml:space="preserve" text-anchor="middle" x="266.65" y="-2110.78" font-family="Helvetica,Arial,sans-serif" font-size="14.00">&lt;</text>
</g>
<!-- LE -->
<g id="node12" class="node">
<title>LE</title>
<ellipse fill="lightblue" stroke="black" cx="551.82" cy="-2124.08" rx="26.87" ry="26.87"/>
<ellipse fill="none" stroke="black" cx="551.82" cy="-2124.08" rx="30.87" ry="30.87"/>
<text xml:space="preserve" text-anchor="middle" x="551.82" y="-2125.78" font-family="Helvetica,Arial,sans-serif" font-size="14.00">LE</text>
<text xml:space="preserve" text-anchor="middle" x="551.82" y="-2110.78" font-family="Helvetica,Arial,sans-serif" font-size="14.00">&lt;=</text>
</g>
<!-- LT&#45;&gt;LE -->
<g id="edge26" class="edge">
<title>LT&#45;&gt;LE</title>
<path fill="none" stroke="black" d="M297.96,-2124.08C348.94,-2124.08 451.95,-2124.08 509.51,-2124.08"/>
<polygon fill="black" stroke="black" points="509.22,-2127.58 519.22,-2124.08 509.22,-2120.58 509.22,-2127.58"/>
<text xml:space="preserve" text-anchor="middle" x="399.49" y="-2125.08" font-family="Helvetica,Arial,sans-serif" font-size="10.00">=</text>
</g>
<!-- GT -->
<g id="node13" class="node">
<title>GT</title>
<ellipse fill="lightblue" stroke="black" cx="266.65" cy="-1736.08" rx="26.87" ry="26.87"/>
<ellipse fill="none" stroke="black" cx="266.65" cy="-1736.08" rx="30.87" ry="30.87"/>
<text xml:space="preserve" text-anchor="middle" x="266.65" y="-1737.78" font-family="Helvetica,Arial,sans-serif" font-size="14.00">GT</text>
<text xml:space="preserve" text-anchor="middle" x="266.65" y="-1722.78" font-family="Helvetica,Arial,sans-serif" font-size="14.00">&gt;</text>
</g>
<!-- GE -->
<g id="node14" class="node">
<title>GE</title>
<ellipse fill="lightblue" stroke="black" cx="551.82" cy="-1736.08" rx="26.87" ry="26.87"/>
<ellipse fill="none" stroke="black" cx="551.82" cy="-1736.08" rx="30.87" ry="30.87"/>
<text xml:space="preserve" text-anchor="middle" x="551.82" y="-1737.78" font-family="Helvetica,Arial,sans-serif" font-size="14.00">GE</text>
<text xml:space="preserve" text-anchor="middle" x="551.82" y="-1722.78" font-family="Helvetica,Arial,sans-serif" font-size="14.00">&gt;=</text>
</g>
<!-- GT&#45;&gt;GE -->
<g id="edge28" class="edge">
<title>GT&#45;&gt;GE</title>
<path fill="none" stroke="black" d="M297.96,-1736.08C348.94,-1736.08 451.95,-1736.08 509.51,-1736.08"/>
<polygon fill="black" stroke="black" points="509.22,-1739.58 519.22,-1736.08 509.22,-1732.58 509.22,-1739.58"/>
<text xml:space="preserve" text-anchor="middle" x="399.49" y="-1737.08" font-family="Helvetica,Arial,sans-serif" font-size="10.00">=</text>
</g>
<!-- PLUS -->
<g id="node15" class="node">
<title>PLUS</title>
<ellipse fill="lightblue" stroke="black" cx="266.65" cy="-2035.08" rx="36.24" ry="36.24"/>
<ellipse fill="none" stroke="black" cx="266.65" cy="-2035.08" rx="40.24" ry="40.24"/>
<text xml:space="preserve" text-anchor="middle" x="266.65" y="-2036.78" font-family="Helvetica,Arial,sans-serif" font-size="14.00">PLUS</text>
<text xml:space="preserve" text-anchor="middle" x="266.65" y="-2021.78" font-family="Helvetica,Arial,sans-serif" font-size="14.00">+</text>
</g>
<!-- MINUS -->
<g id="node16" class="node">
<title>MINUS</title>
<ellipse fill="lightblue" stroke="black" cx="266.65" cy="-1930.08" rx="42.6" ry="42.6"/>
<ellipse fill="none" stroke="black" cx="266.65" cy="-1930.08" rx="46.6" ry="46.6"/>
<text xml:space="preserve" text-anchor="middle" x="266.65" y="-1931.78" font-family="Helvetica,Arial,sans-serif" font-size="14.00">MINUS</text>
<text xml:space="preserve" text-anchor="middle" x="266.65" y="-1916.78" font-family="Helvetica,Arial,sans-serif" font-size="14.00">&#45;</text>
</g>
<!-- STAR -->
<g id="node17" class="node">
<title>STAR</title>
<ellipse fill="lightblue" stroke="black" cx="266.65" cy="-1825.08" rx="36.24" ry="36.24"/>
<ellipse fill="none" stroke="black" cx="266.65" cy="-1825.08" rx="40.24" ry="40.24"/>
<text xml:space="preserve" text-anchor="middle" x="266.65" y="-1826.78" font-family="Helvetica,Arial,sans-serif" font-size="14.00">STAR</text>
<text xml:space="preserve" text-anchor="middle" x="266.65" y="-1811.78" font-family="Helvetica,Arial,sans-serif" font-size="14.00">*</text>
</g>
<!-- DIV -->
<g id="node18" class="node">
<title>DIV</title>
<ellipse fill="lightblue" stroke="black" cx="551.82" cy="-240.08" rx="27.22" ry="27.22"/>
<ellipse fill="none" stroke="black" cx="551.82" cy="-240.08" rx="31.22" ry="31.22"/>
<text xml:space="preserve" text-anchor="middle" x="551.82" y="-241.78" font-family="Helvetica,Arial,sans-serif" font-size="14.00">DIV</text>
<text xml:space="preserve" text-anchor="middle" x="551.82" y="-226.78" font-family="Helvetica,Arial,sans-serif" font-size="14.00">/</text>
</g>
<!-- AMP -->
<g id="node19" class="node">
<title>AMP</title>
<ellipse fill="lightblue" stroke="black" cx="266.65" cy="-741.08" rx="54.27" ry="54.27"/>
<ellipse fill="none" stroke="black" cx="266.65" cy="-741.08" rx="58.27" ry="58.27"/>
<text xml:space="preserve" text-anchor="middle" x="266.65" y="-742.78" font-family="Helvetica,Arial,sans-serif" font-size="14.00">REF/AMP</text>
<text xml:space="preserve" text-anchor="middle" x="266.65" y="-727.78" font-family="Helvetica,Arial,sans-serif" font-size="14.00">&amp;</text>
</g>
<!-- AND -->
<g id="node20" class="node">
<title>AND</title>
<ellipse fill="lightblue" stroke="black" cx="551.82" cy="-741.08" rx="31.47" ry="31.47"/>
<ellipse fill="none" stroke="black" cx="551.82" cy="-741.08" rx="35.47" ry="35.47"/>
<text xml:space="preserve" text-anchor="middle" x="551.82" y="-742.78" font-family="Helvetica,Arial,sans-serif" font-size="14.00">AND</text>
<text xml:space="preserve" text-anchor="middle" x="551.82" y="-727.78" font-family="Helvetica,Arial,sans-serif" font-size="14.00">&amp;&amp;</text>
</g>
<!-- AMP&#45;&gt;AND -->
<g id="edge30" class="edge">
<title>AMP&#45;&gt;AND</title>
<path fill="none" stroke="black" d="M325.3,-741.08C378.18,-741.08 455.51,-741.08 504.49,-741.08"/>
<polygon fill="black" stroke="black" points="504.48,-744.58 514.48,-741.08 504.48,-737.58 504.48,-744.58"/>
<text xml:space="preserve" text-anchor="middle" x="399.49" y="-742.08" font-family="Helvetica,Arial,sans-serif" font-size="10.00">&amp;</text>
</g>
<!-- OR -->
<g id="node21" class="node">
<title>OR</title>
<ellipse fill="lightblue" stroke="black" cx="551.82" cy="-325.08" rx="26.87" ry="26.87"/>
<ellipse fill="none" stroke="black" cx="551.82" cy="-325.08" rx="30.87" ry="30.87"/>
<text xml:space="preserve" text-anchor="middle" x="551.82" y="-326.78" font-family="Helvetica,Arial,sans-serif" font-size="14.00">OR</text>
<text xml:space="preserve" text-anchor="middle" x="551.82" y="-311.78" font-family="Helvetica,Arial,sans-serif" font-size="14.00">||</text>
</g>
<!-- LPAREN -->
<g id="node22" class="node">
<title>LPAREN</title>
<ellipse fill="lightblue" stroke="black" cx="266.65" cy="-1634.08" rx="48.97" ry="48.97"/>
<ellipse fill="none" stroke="black" cx="266.65" cy="-1634.08" rx="52.97" ry="52.97"/>
<text xml:space="preserve" text-anchor="middle" x="266.65" y="-1635.78" font-family="Helvetica,Arial,sans-serif" font-size="14.00">LPAREN</text>
<text xml:space="preserve" text-anchor="middle" x="266.65" y="-1620.78" font-family="Helvetica,Arial,sans-serif" font-size="14.00">(</text>
</g>
<!-- RPAREN -->
<g id="node23" class="node">
<title>RPAREN</title>
<ellipse fill="lightblue" stroke="black" cx="266.65" cy="-1508.08" rx="50.56" ry="50.56"/>
<ellipse fill="none" stroke="black" cx="266.65" cy="-1508.08" rx="54.56" ry="54.56"/>
<text xml:space="preserve" text-anchor="middle" x="266.65" y="-1509.78" font-family="Helvetica,Arial,sans-serif" font-size="14.00">RPAREN</text>
<text xml:space="preserve" text-anchor="middle" x="266.65" y="-1494.78" font-family="Helvetica,Arial,sans-serif" font-size="14.00">)</text>
</g>
<!-- LBRACK -->
<g id="node24" class="node">
<title>LBRACK</title>
<ellipse fill="lightblue" stroke="black" cx="266.65" cy="-1381.08" rx="50.03" ry="50.03"/>
<ellipse fill="none" stroke="black" cx="266.65" cy="-1381.08" rx="54.03" ry="54.03"/>
<text xml:space="preserve" text-anchor="middle" x="266.65" y="-1382.78" font-family="Helvetica,Arial,sans-serif" font-size="14.00">LBRACK</text>
<text xml:space="preserve" text-anchor="middle" x="266.65" y="-1367.78" font-family="Helvetica,Arial,sans-serif" font-size="14.00">[</text>
</g>
<!-- RBRACK -->
<g id="node25" class="node">
<title>RBRACK</title>
<ellipse fill="lightblue" stroke="black" cx="266.65" cy="-1253.08" rx="51.62" ry="51.62"/>
<ellipse fill="none" stroke="black" cx="266.65" cy="-1253.08" rx="55.62" ry="55.62"/>
<text xml:space="preserve" text-anchor="middle" x="266.65" y="-1254.78" font-family="Helvetica,Arial,sans-serif" font-size="14.00">RBRACK</text>
<text xml:space="preserve" text-anchor="middle" x="266.65" y="-1239.78" font-family="Helvetica,Arial,sans-serif" font-size="14.00">]</text>
</g>
<!-- LBRACE -->
<g id="node26" class="node">
<title>LBRACE</title>
<ellipse fill="lightblue" stroke="black" cx="266.65" cy="-1125.08" rx="50.03" ry="50.03"/>
<ellipse fill="none" stroke="black" cx="266.65" cy="-1125.08" rx="54.03" ry="54.03"/>
<text xml:space="preserve" text-anchor="middle" x="266.65" y="-1126.78" font-family="Helvetica,Arial,sans-serif" font-size="14.00">LBRACE</text>
<text xml:space="preserve" text-anchor="middle" x="266.65" y="-1111.78" font-family="Helvetica,Arial,sans-serif" font-size="14.00">{</text>
</g>
<!-- RBRACE -->
<g id="node27" class="node">
<title>RBRACE</title>
<ellipse fill="lightblue" stroke="black" cx="266.65" cy="-997.08" rx="51.62" ry="51.62"/>
<ellipse fill="none" stroke="black" cx="266.65" cy="-997.08" rx="55.62" ry="55.62"/>
<text xml:space="preserve" text-anchor="middle" x="266.65" y="-998.78" font-family="Helvetica,Arial,sans-serif" font-size="14.00">RBRACE</text>
<text xml:space="preserve" text-anchor="middle" x="266.65" y="-983.78" font-family="Helvetica,Arial,sans-serif" font-size="14.00">}</text>
</g>
<!-- COMMA -->
<g id="node28" class="node">
<title>COMMA</title>
<ellipse fill="lightblue" stroke="black" cx="266.65" cy="-870.08" rx="48.97" ry="48.97"/>
<ellipse fill="none" stroke="black" cx="266.65" cy="-870.08" rx="52.97" ry="52.97"/>
<text xml:space="preserve" text-anchor="middle" x="266.65" y="-871.78" font-family="Helvetica,Arial,sans-serif" font-size="14.00">COMMA</text>
<text xml:space="preserve" text-anchor="middle" x="266.65" y="-856.78" font-family="Helvetica,Arial,sans-serif" font-size="14.00">,</text>
</g>
<!-- COMMENT -->
<g id="node29" class="node">
<title>COMMENT</title>
<ellipse fill="lightgrey" stroke="black" cx="758.37" cy="-81.08" rx="62.23" ry="62.23"/>
<ellipse fill="none" stroke="black" cx="758.37" cy="-81.08" rx="66.23" ry="66.23"/>
<text xml:space="preserve" text-anchor="middle" x="758.37" y="-82.78" font-family="Helvetica,Arial,sans-serif" font-size="14.00">COMMENT</text>
<text xml:space="preserve" text-anchor="middle" x="758.37" y="-67.78" font-family="Helvetica,Arial,sans-serif" font-size="14.00">(Ignorar)</text>
</g>
<!-- q0&#45;&gt;ID -->
<g id="edge6" class="edge">
<title>q0&#45;&gt;ID</title>
<path fill="none" stroke="black" d="M81.33,-1609.73C85.44,-1713.18 99.66,-1994.23 135.32,-2079.08 154.26,-2124.13 162.61,-2139.89 205.07,-2164.08 258.16,-2194.33 441.42,-2209.77 517.41,-2214.99"/>
<polygon fill="black" stroke="black" points="516.92,-2218.47 527.13,-2215.64 517.39,-2211.49 516.92,-2218.47"/>
<text xml:space="preserve" text-anchor="middle" x="266.65" y="-2195.92" font-family="Helvetica,Arial,sans-serif" font-size="10.00">letra</text>
</g>
<!-- q0&#45;&gt;INTCON -->
<g id="edge8" class="edge">
<title>q0&#45;&gt;INTCON</title>
<path fill="none" stroke="black" d="M80.04,-1609.8C80.71,-1759.35 86.51,-2298.93 135.32,-2462.08 153.22,-2521.92 166.4,-2535.03 205.07,-2584.08 209.93,-2590.24 215.45,-2596.35 221.14,-2602.16"/>
<polygon fill="black" stroke="black" points="218.29,-2604.27 227.87,-2608.8 223.21,-2599.29 218.29,-2604.27"/>
<text xml:space="preserve" text-anchor="middle" x="161.2" y="-2561.6" font-family="Helvetica,Arial,sans-serif" font-size="10.00">digito</text>
</g>
<!-- q0&#45;&gt;ASSIGN -->
<g id="edge21" class="edge">
<title>q0&#45;&gt;ASSIGN</title>
<path fill="none" stroke="black" d="M79.79,-1609.65C79.63,-1749.12 82.99,-2226.43 135.32,-2368.08 151.91,-2413 187.74,-2453.99 217.64,-2482.53"/>
<polygon fill="black" stroke="black" points="215.09,-2484.93 224.79,-2489.2 219.87,-2479.82 215.09,-2484.93"/>
<text xml:space="preserve" text-anchor="middle" x="161.2" y="-2448.16" font-family="Helvetica,Arial,sans-serif" font-size="10.00">=</text>
</g>
<!-- q0&#45;&gt;NOT -->
<g id="edge23" class="edge">
<title>q0&#45;&gt;NOT</title>
<path fill="none" stroke="black" d="M80.61,-1609.69C83.13,-1736.8 94.26,-2141.16 135.32,-2264.08 153.66,-2318.99 165.45,-2331.88 205.07,-2374.08 211.46,-2380.89 219.03,-2387.33 226.62,-2393.09"/>
<polygon fill="black" stroke="black" points="224.43,-2395.83 234.58,-2398.86 228.53,-2390.16 224.43,-2395.83"/>
<text xml:space="preserve" text-anchor="middle" x="161.2" y="-2354.72" font-family="Helvetica,Arial,sans-serif" font-size="10.00">!</text>
</g>
<!-- q0&#45;&gt;LT -->
<g id="edge25" class="edge">
<title>q0&#45;&gt;LT</title>
<path fill="none" stroke="black" d="M79.59,-1609.77C80.1,-1683.75 87.08,-1849.37 135.32,-1978.08 155.11,-2030.89 165.22,-2044.17 205.07,-2084.08 212.25,-2091.27 220.92,-2097.9 229.43,-2103.61"/>
<polygon fill="black" stroke="black" points="227.29,-2106.4 237.6,-2108.83 231.06,-2100.5 227.29,-2106.4"/>
<text xml:space="preserve" text-anchor="middle" x="161.2" y="-2065.73" font-family="Helvetica,Arial,sans-serif" font-size="10.00">&lt;</text>
</g>
<!-- q0&#45;&gt;GT -->
<g id="edge27" class="edge">
<title>q0&#45;&gt;GT</title>
<path fill="none" stroke="black" d="M105.33,-1599.54C129.62,-1626.01 167.96,-1665.8 205.07,-1696.08 212.79,-1702.38 221.52,-1708.6 229.9,-1714.2"/>
<polygon fill="black" stroke="black" points="227.94,-1717.09 238.23,-1719.61 231.76,-1711.23 227.94,-1717.09"/>
<text xml:space="preserve" text-anchor="middle" x="161.2" y="-1681.51" font-family="Helvetica,Arial,sans-serif" font-size="10.00">&gt;</text>
</g>
<!-- q0&#45;&gt;PLUS -->
<g id="edge33" class="edge">
<title>q0&#45;&gt;PLUS</title>
<path fill="none" stroke="black" d="M82.9,-1609.59C88.24,-1667.17 102.21,-1778.44 135.32,-1867.08 156.78,-1924.51 165.09,-1939.61 205.07,-1986.08 210.84,-1992.79 217.61,-1999.26 224.5,-2005.19"/>
<polygon fill="black" stroke="black" points="222.12,-2007.76 232.06,-2011.42 226.57,-2002.36 222.12,-2007.76"/>
<text xml:space="preserve" text-anchor="middle" x="161.2" y="-1964.6" font-family="Helvetica,Arial,sans-serif" font-size="10.00">+</text>
</g>
<!-- q0&#45;&gt;MINUS -->
<g id="edge34" class="edge">
<title>q0&#45;&gt;MINUS</title>
<path fill="none" stroke="black" d="M86.52,-1609.06C94.55,-1650.47 110.27,-1718.07 135.32,-1772.08 158.43,-1821.9 169.18,-1832.51 205.07,-1874.08 210.41,-1880.27 216.38,-1886.48 222.44,-1892.39"/>
<polygon fill="black" stroke="black" points="219.94,-1894.85 229.59,-1899.21 224.76,-1889.78 219.94,-1894.85"/>
<text xml:space="preserve" text-anchor="middle" x="161.2" y="-1853.29" font-family="Helvetica,Arial,sans-serif" font-size="10.00">&#45;</text>
</g>
<!-- q0&#45;&gt;STAR -->
<g id="edge35" class="edge">
<title>q0&#45;&gt;STAR</title>
<path fill="none" stroke="black" d="M92.87,-1607.22C102.74,-1632.74 117.64,-1667.21 135.32,-1695.08 160.77,-1735.19 170.96,-1743.01 205.07,-1776.08 211.35,-1782.17 218.33,-1788.31 225.25,-1794.09"/>
<polygon fill="black" stroke="black" points="222.79,-1796.61 232.75,-1800.23 227.22,-1791.19 222.79,-1796.61"/>
<text xml:space="preserve" text-anchor="middle" x="161.2" y="-1758.31" font-family="Helvetica,Arial,sans-serif" font-size="10.00">*</text>
</g>
<!-- q0&#45;&gt;AMP -->
<g id="edge29" class="edge">
<title>q0&#45;&gt;AMP</title>
<path fill="none" stroke="black" d="M81.45,-1532.68C86.34,-1414.41 103.44,-1056.94 135.32,-945.58 154.18,-879.7 166.25,-864.55 205.07,-808.08 208.98,-802.4 213.33,-796.69 217.86,-791.14"/>
<polygon fill="black" stroke="black" points="220.34,-793.62 224.11,-783.71 214.99,-789.11 220.34,-793.62"/>
<text xml:space="preserve" text-anchor="middle" x="161.2" y="-946.58" font-family="Helvetica,Arial,sans-serif" font-size="10.00">&amp;</text>
</g>
<!-- q0&#45;&gt;LPAREN -->
<g id="edge41" class="edge">
<title>q0&#45;&gt;LPAREN</title>
<path fill="none" stroke="black" d="M115.76,-1583.23C141.11,-1591.83 175.71,-1603.56 205.28,-1613.6"/>
<polygon fill="black" stroke="black" points="203.89,-1616.82 214.49,-1616.72 206.14,-1610.19 203.89,-1616.82"/>
<text xml:space="preserve" text-anchor="middle" x="161.2" y="-1607.35" font-family="Helvetica,Arial,sans-serif" font-size="10.00">(</text>
</g>
<!-- q0&#45;&gt;RPAREN -->
<g id="edge42" class="edge">
<title>q0&#45;&gt;RPAREN</title>
<path fill="none" stroke="black" d="M115.76,-1558.93C140.73,-1550.46 174.68,-1538.94 203.96,-1529.01"/>
<polygon fill="black" stroke="black" points="204.73,-1532.44 213.08,-1525.92 202.48,-1525.82 204.73,-1532.44"/>
<text xml:space="preserve" text-anchor="middle" x="161.2" y="-1551.7" font-family="Helvetica,Arial,sans-serif" font-size="10.00">)</text>
</g>
<!-- q0&#45;&gt;LBRACK -->
<g id="edge43" class="edge">
<title>q0&#45;&gt;LBRACK</title>
<path fill="none" stroke="black" d="M106.57,-1543.86C136.21,-1513.52 184.67,-1463.95 220.32,-1427.46"/>
<polygon fill="black" stroke="black" points="222.63,-1430.11 227.12,-1420.51 217.63,-1425.21 222.63,-1430.11"/>
<text xml:space="preserve" text-anchor="middle" x="161.2" y="-1510.62" font-family="Helvetica,Arial,sans-serif" font-size="10.00">[</text>
</g>
<!-- q0&#45;&gt;RBRACK -->
<g id="edge44" class="edge">
<title>q0&#45;&gt;RBRACK</title>
<path fill="none" stroke="black" d="M93.49,-1535.17C113.59,-1484.27 154.44,-1389.4 205.07,-1318.08 209.33,-1312.08 214.11,-1306.06 219.06,-1300.23"/>
<polygon fill="black" stroke="black" points="221.44,-1302.83 225.4,-1293 216.18,-1298.21 221.44,-1302.83"/>
<text xml:space="preserve" text-anchor="middle" x="161.2" y="-1439.09" font-family="Helvetica,Arial,sans-serif" font-size="10.00">]</text>
</g>
<!-- q0&#45;&gt;LBRACE -->
<g id="edge45" class="edge">
<title>q0&#45;&gt;LBRACE</title>
<path fill="none" stroke="black" d="M85.08,-1532.82C96.32,-1460.05 128.52,-1299.07 205.07,-1188.08 209.3,-1181.95 214.13,-1175.86 219.17,-1170.02"/>
<polygon fill="black" stroke="black" points="221.59,-1172.56 225.67,-1162.78 216.39,-1167.88 221.59,-1172.56"/>
<text xml:space="preserve" text-anchor="middle" x="161.2" y="-1326.54" font-family="Helvetica,Arial,sans-serif" font-size="10.00">{</text>
</g>
<!-- q0&#45;&gt;RBRACE -->
<g id="edge46" class="edge">
<title>q0&#45;&gt;RBRACE</title>
<path fill="none" stroke="black" d="M82.26,-1532.39C87.03,-1465.5 100.63,-1324.45 135.32,-1210.58 156.57,-1140.83 164.22,-1122.48 205.07,-1062.08 209.19,-1055.98 213.88,-1049.9 218.79,-1044.04"/>
<polygon fill="black" stroke="black" points="221.18,-1046.63 225.09,-1036.78 215.89,-1042.04 221.18,-1046.63"/>
<text xml:space="preserve" text-anchor="middle" x="161.2" y="-1211.58" font-family="Helvetica,Arial,sans-serif" font-size="10.00">}</text>
</g>
<!-- q0&#45;&gt;COMMA -->
<g id="edge47" class="edge">
<title>q0&#45;&gt;COMMA</title>
<path fill="none" stroke="black" d="M79.9,-1532.38C80.7,-1447.91 87.83,-1241.35 135.32,-1076.58 155.07,-1008.06 164.11,-990.46 205.07,-932.08 209.37,-925.96 214.28,-919.87 219.41,-914.04"/>
<polygon fill="black" stroke="black" points="221.84,-916.57 226.01,-906.83 216.68,-911.84 221.84,-916.57"/>
<text xml:space="preserve" text-anchor="middle" x="161.2" y="-1077.58" font-family="Helvetica,Arial,sans-serif" font-size="10.00">,</text>
</g>
<!-- q0&#45;&gt;q0 -->
<g id="edge2" class="edge">
<title>q0&#45;&gt;q0</title>
<path fill="none" stroke="black" d="M68.33,-1608.21C68.7,-1619.05 72.24,-1627.44 78.96,-1627.44 83.05,-1627.44 85.97,-1624.32 87.71,-1619.44"/>
<polygon fill="black" stroke="black" points="91.14,-1620.14 89.34,-1609.7 84.23,-1618.99 91.14,-1620.14"/>
<text xml:space="preserve" text-anchor="middle" x="78.96" y="-1628.44" font-family="Helvetica,Arial,sans-serif" font-size="10.00">&#39; &#39;, \t, \n, \r</text>
</g>
<!-- q_id_uscore -->
<g id="node31" class="node">
<title>q_id_uscore</title>
<ellipse fill="none" stroke="black" cx="266.65" cy="-2278.08" rx="58.17" ry="58.17"/>
<text xml:space="preserve" text-anchor="middle" x="266.65" y="-2272.28" font-family="Helvetica,Arial,sans-serif" font-size="14.00">q_id_uscore</text>
</g>
<!-- q0&#45;&gt;q_id_uscore -->
<g id="edge3" class="edge">
<title>q0&#45;&gt;q_id_uscore</title>
<path fill="none" stroke="black" d="M81.24,-1609.46C85.83,-1739.03 102.98,-2155.03 135.32,-2205.08 150.47,-2228.52 175.92,-2245.16 200.32,-2256.57"/>
<polygon fill="black" stroke="black" points="198.74,-2259.69 209.3,-2260.53 201.57,-2253.29 198.74,-2259.69"/>
<text xml:space="preserve" text-anchor="middle" x="161.2" y="-2250.44" font-family="Helvetica,Arial,sans-serif" font-size="10.00">_</text>
</g>
<!-- q_char_open -->
<g id="node33" class="node">
<title>q_char_open</title>
<ellipse fill="none" stroke="black" cx="266.65" cy="-603.08" rx="61.58" ry="61.58"/>
<text xml:space="preserve" text-anchor="middle" x="266.65" y="-597.28" font-family="Helvetica,Arial,sans-serif" font-size="14.00">q_char_open</text>
</g>
<!-- q0&#45;&gt;q_char_open -->
<g id="edge13" class="edge">
<title>q0&#45;&gt;q_char_open</title>
<path fill="none" stroke="black" d="M80.93,-1532.29C84.58,-1398.52 99.14,-957.13 135.32,-820.58 153.79,-750.87 165.83,-734.58 205.07,-674.08 208.83,-668.28 213.02,-662.44 217.39,-656.74"/>
<polygon fill="black" stroke="black" points="219.98,-659.12 223.44,-649.1 214.49,-654.77 219.98,-659.12"/>
<text xml:space="preserve" text-anchor="middle" x="161.2" y="-821.58" font-family="Helvetica,Arial,sans-serif" font-size="10.00">&#39; (apóstrofo)</text>
</g>
<!-- q_str_open -->
<g id="node36" class="node">
<title>q_str_open</title>
<ellipse fill="none" stroke="black" cx="266.65" cy="-441.08" rx="54.27" ry="54.27"/>
<text xml:space="preserve" text-anchor="middle" x="266.65" y="-435.28" font-family="Helvetica,Arial,sans-serif" font-size="14.00">q_str_open</text>
</g>
<!-- q0&#45;&gt;q_str_open -->
<g id="edge18" class="edge">
<title>q0&#45;&gt;q_str_open</title>
<path fill="none" stroke="black" d="M80.56,-1532.35C83.16,-1384.03 95.12,-852.19 135.32,-688.58 152.99,-616.67 195.86,-542.61 227.63,-494.47"/>
<polygon fill="black" stroke="black" points="230.54,-496.42 233.19,-486.16 224.72,-492.53 230.54,-496.42"/>
<text xml:space="preserve" text-anchor="middle" x="161.2" y="-689.58" font-family="Helvetica,Arial,sans-serif" font-size="10.00">&quot; (aspas)</text>
</g>
<!-- q_pipe_open -->
<g id="node37" class="node">
<title>q_pipe_open</title>
<ellipse fill="none" stroke="black" cx="266.65" cy="-332.08" rx="36.72" ry="36.72"/>
<text xml:space="preserve" text-anchor="middle" x="266.65" y="-326.28" font-family="Helvetica,Arial,sans-serif" font-size="14.00">q_pipe</text>
</g>
<!-- q0&#45;&gt;q_pipe_open -->
<g id="edge31" class="edge">
<title>q0&#45;&gt;q_pipe_open</title>
<path fill="none" stroke="black" d="M80.32,-1532.46C82.1,-1369.86 91.74,-740.47 135.32,-547.58 153.27,-468.12 155.39,-442.64 205.07,-378.08 210.86,-370.56 218.17,-363.63 225.7,-357.56"/>
<polygon fill="black" stroke="black" points="227.5,-360.59 233.35,-351.76 223.27,-355.02 227.5,-360.59"/>
<text xml:space="preserve" text-anchor="middle" x="161.2" y="-548.58" font-family="Helvetica,Arial,sans-serif" font-size="10.00">|</text>
</g>
<!-- q_slash_open -->
<g id="node38" class="node">
<title>q_slash_open</title>
<ellipse fill="none" stroke="black" cx="266.65" cy="-237.08" rx="40.62" ry="40.62"/>
<text xml:space="preserve" text-anchor="middle" x="266.65" y="-231.28" font-family="Helvetica,Arial,sans-serif" font-size="14.00">q_slash</text>
</g>
<!-- q0&#45;&gt;q_slash_open -->
<g id="edge36" class="edge">
<title>q0&#45;&gt;q_slash_open</title>
<path fill="none" stroke="black" d="M80.52,-1532.31C83.48,-1340.62 98.46,-499.03 135.32,-388.58 152.77,-336.31 167.75,-326.62 205.07,-286.08 210.93,-279.71 217.65,-273.47 224.43,-267.68"/>
<polygon fill="black" stroke="black" points="226.33,-270.65 231.82,-261.58 221.88,-265.25 226.33,-270.65"/>
<text xml:space="preserve" text-anchor="middle" x="161.2" y="-389.58" font-family="Helvetica,Arial,sans-serif" font-size="10.00">/</text>
</g>
<!-- q_id_uscore&#45;&gt;ID -->
<g id="edge5" class="edge">
<title>q_id_uscore&#45;&gt;ID</title>
<path fill="none" stroke="black" d="M323.94,-2265.96C381.77,-2253.5 469.89,-2234.51 517.5,-2224.26"/>
<polygon fill="black" stroke="black" points="518.17,-2227.69 527.21,-2222.17 516.7,-2220.85 518.17,-2227.69"/>
<text xml:space="preserve" text-anchor="middle" x="399.49" y="-2261.06" font-family="Helvetica,Arial,sans-serif" font-size="10.00">letra</text>
</g>
<!-- q_id_uscore&#45;&gt;q_id_uscore -->
<g id="edge4" class="edge">
<title>q_id_uscore&#45;&gt;q_id_uscore</title>
<path fill="none" stroke="black" d="M247.41,-2333.2C249.22,-2345.38 255.63,-2354.25 266.65,-2354.25 274.06,-2354.25 279.38,-2350.25 282.63,-2343.92"/>
<polygon fill="black" stroke="black" points="285.89,-2345.23 285.45,-2334.65 279.19,-2343.19 285.89,-2345.23"/>
<text xml:space="preserve" text-anchor="middle" x="266.65" y="-2355.25" font-family="Helvetica,Arial,sans-serif" font-size="10.00">_</text>
</g>
<!-- q_real_dot&#45;&gt;REALCON -->
<g id="edge11" class="edge">
<title>q_real_dot&#45;&gt;REALCON</title>
<path fill="none" stroke="black" d="M584.33,-2641.08C612.24,-2641.08 653.94,-2641.08 689.41,-2641.08"/>
<polygon fill="black" stroke="black" points="689.17,-2644.58 699.17,-2641.08 689.17,-2637.58 689.17,-2644.58"/>
<text xml:space="preserve" text-anchor="middle" x="662.52" y="-2642.08" font-family="Helvetica,Arial,sans-serif" font-size="10.00">digito</text>
</g>
<!-- q_char_esc -->
<g id="node34" class="node">
<title>q_char_esc</title>
<ellipse fill="none" stroke="black" cx="551.82" cy="-631.08" rx="55.73" ry="55.73"/>
<text xml:space="preserve" text-anchor="middle" x="551.82" y="-625.28" font-family="Helvetica,Arial,sans-serif" font-size="14.00">q_char_esc</text>
</g>
<!-- q_char_open&#45;&gt;q_char_esc -->
<g id="edge14" class="edge">
<title>q_char_open&#45;&gt;q_char_esc</title>
<path fill="none" stroke="black" d="M328.4,-609.09C374.34,-613.63 437.35,-619.86 484.58,-624.53"/>
<polygon fill="black" stroke="black" points="484.12,-628 494.42,-625.5 484.81,-621.04 484.12,-628"/>
<text xml:space="preserve" text-anchor="middle" x="399.49" y="-622.22" font-family="Helvetica,Arial,sans-serif" font-size="10.00">\ (barra inv.)</text>
</g>
<!-- q_char_wait -->
<g id="node35" class="node">
<title>q_char_wait</title>
<ellipse fill="none" stroke="black" cx="758.37" cy="-576.08" rx="57.68" ry="57.68"/>
<text xml:space="preserve" text-anchor="middle" x="758.37" y="-570.28" font-family="Helvetica,Arial,sans-serif" font-size="14.00">q_char_wait</text>
</g>
<!-- q_char_open&#45;&gt;q_char_wait -->
<g id="edge16" class="edge">
<title>q_char_open&#45;&gt;q_char_wait</title>
<path fill="none" stroke="black" d="M326.12,-585.64C366.36,-574.57 421.28,-561.29 470.74,-555.58 542.33,-547.32 561.06,-549.7 632.9,-555.58 651.61,-557.11 671.74,-559.91 690.25,-562.97"/>
<polygon fill="black" stroke="black" points="689.6,-566.41 700.04,-564.64 690.77,-559.51 689.6,-566.41"/>
<text xml:space="preserve" text-anchor="middle" x="551.82" y="-556.58" font-family="Helvetica,Arial,sans-serif" font-size="10.00">isprint() exceto \ e &#39;</text>
</g>
<!-- q_char_esc&#45;&gt;q_char_wait -->
<g id="edge15" class="edge">
<title>q_char_esc&#45;&gt;q_char_wait</title>
<path fill="none" stroke="black" d="M606.03,-616.77C632.15,-609.75 663.88,-601.22 691.52,-593.79"/>
<polygon fill="black" stroke="black" points="692.08,-597.26 700.83,-591.28 690.26,-590.5 692.08,-597.26"/>
<text xml:space="preserve" text-anchor="middle" x="662.52" y="-604.58" font-family="Helvetica,Arial,sans-serif" font-size="10.00">n | 0</text>
</g>
<!-- q_char_wait&#45;&gt;CHARCON -->
<g id="edge17" class="edge">
<title>q_char_wait&#45;&gt;CHARCON</title>
<path fill="none" stroke="black" d="M816.53,-576.08C842.4,-576.08 873.22,-576.08 900.48,-576.08"/>
<polygon fill="black" stroke="black" points="900.4,-579.58 910.4,-576.08 900.4,-572.58 900.4,-579.58"/>
<text xml:space="preserve" text-anchor="middle" x="868.47" y="-577.08" font-family="Helvetica,Arial,sans-serif" font-size="10.00">&#39; (apóstrofo)</text>
</g>
<!-- q_str_open&#45;&gt;STRINGCON -->
<g id="edge20" class="edge">
<title>q_str_open&#45;&gt;STRINGCON</title>
<path fill="none" stroke="black" d="M321.25,-441.27C363.85,-441.42 424.06,-441.63 472.13,-441.8"/>
<polygon fill="black" stroke="black" points="471.91,-445.3 481.92,-441.84 471.94,-438.3 471.91,-445.3"/>
<text xml:space="preserve" text-anchor="middle" x="399.49" y="-442.73" font-family="Helvetica,Arial,sans-serif" font-size="10.00">&quot; (aspas)</text>
</g>
<!-- q_str_open&#45;&gt;q_str_open -->
<g id="edge19" class="edge">
<title>q_str_open&#45;&gt;q_str_open</title>
<path fill="none" stroke="black" d="M247.23,-492.07C248.75,-504.29 255.22,-513.35 266.65,-513.35 274.33,-513.35 279.78,-509.26 282.98,-502.87"/>
<polygon fill="black" stroke="black" points="286.27,-504.1 285.66,-493.52 279.54,-502.17 286.27,-504.1"/>
<text xml:space="preserve" text-anchor="middle" x="266.65" y="-514.35" font-family="Helvetica,Arial,sans-serif" font-size="10.00">isprint() exceto &quot; e \n</text>
</g>
<!-- q_pipe_open&#45;&gt;OR -->
<g id="edge32" class="edge">
<title>q_pipe_open&#45;&gt;OR</title>
<path fill="none" stroke="black" d="M303.8,-331.19C356.42,-329.89 453.85,-327.48 509.33,-326.11"/>
<polygon fill="black" stroke="black" points="509.07,-329.61 518.98,-325.87 508.9,-322.62 509.07,-329.61"/>
<text xml:space="preserve" text-anchor="middle" x="399.49" y="-331.01" font-family="Helvetica,Arial,sans-serif" font-size="10.00">|</text>
</g>
<!-- q_slash_open&#45;&gt;DIV -->
<g id="edge37" class="edge">
<title>q_slash_open&#45;&gt;DIV</title>
<path fill="none" stroke="black" d="M307.62,-237.5C360.88,-238.07 454.69,-239.06 508.91,-239.64"/>
<polygon fill="black" stroke="black" points="508.63,-243.13 518.66,-239.74 508.7,-236.13 508.63,-243.13"/>
<text xml:space="preserve" text-anchor="middle" x="399.49" y="-240.02" font-family="Helvetica,Arial,sans-serif" font-size="10.00">[outro] (retorna ao token)</text>
</g>
<!-- q_comment_body -->
<g id="node39" class="node">
<title>q_comment_body</title>
<ellipse fill="none" stroke="black" cx="551.82" cy="-81.08" rx="81.08" ry="81.08"/>
<text xml:space="preserve" text-anchor="middle" x="551.82" y="-75.28" font-family="Helvetica,Arial,sans-serif" font-size="14.00">q_comment_body</text>
</g>
<!-- q_slash_open&#45;&gt;q_comment_body -->
<g id="edge38" class="edge">
<title>q_slash_open&#45;&gt;q_comment_body</title>
<path fill="none" stroke="black" d="M302.66,-217.8C344.33,-194.84 415.22,-155.78 470.6,-125.27"/>
<polygon fill="black" stroke="black" points="472,-128.5 479.07,-120.61 468.62,-122.37 472,-128.5"/>
<text xml:space="preserve" text-anchor="middle" x="399.49" y="-191.98" font-family="Helvetica,Arial,sans-serif" font-size="10.00">/</text>
</g>
<!-- q_comment_body&#45;&gt;COMMENT -->
<g id="edge40" class="edge">
<title>q_comment_body&#45;&gt;COMMENT</title>
<path fill="none" stroke="black" d="M633.37,-81.08C648.93,-81.08 665.2,-81.08 680.64,-81.08"/>
<polygon fill="black" stroke="black" points="680.2,-84.58 690.2,-81.08 680.2,-77.58 680.2,-84.58"/>
<text xml:space="preserve" text-anchor="middle" x="662.52" y="-82.08" font-family="Helvetica,Arial,sans-serif" font-size="10.00">\n</text>
</g>
<!-- q_comment_body&#45;&gt;q_comment_body -->
<g id="edge39" class="edge">
<title>q_comment_body&#45;&gt;q_comment_body</title>
<path fill="none" stroke="black" d="M532.99,-160.37C535.92,-172.18 542.19,-180.16 551.82,-180.16 558.13,-180.16 563,-176.72 566.44,-171.02"/>
<polygon fill="black" stroke="black" points="569.67,-172.37 570.09,-161.78 563.16,-169.79 569.67,-172.37"/>
<text xml:space="preserve" text-anchor="middle" x="551.82" y="-181.16" font-family="Helvetica,Arial,sans-serif" font-size="10.00">qualquer exceto \n</text>
</g>
</g>
</svg>
